<svg width="14" height="16" viewBox="0 0 14 16" fill="none" xmlns="http://www.w3.org/2000/svg">
<path d="M13.3636 4H10.6591V3.68C10.6591 1.648 9.02045 0 7 0C4.97955 0 3.34091 1.648 3.34091 3.68V4H0.636364C0.284375 4 0 4.286 0 4.64V15.36C0 15.714 0.284375 16 0.636364 16H13.3636C13.7156 16 14 15.714 14 15.36V4.64C14 4.286 13.7156 4 13.3636 4ZM4.77273 3.68C4.77273 2.442 5.76903 1.44 7 1.44C8.23097 1.44 9.22727 2.442 9.22727 3.68V4H4.77273V3.68ZM12.5682 14.56H1.43182V5.44H3.34091V7.2C3.34091 7.288 3.4125 7.36 3.5 7.36H4.61364C4.70114 7.36 4.77273 7.288 4.77273 7.2V5.44H9.22727V7.2C9.22727 7.288 9.29886 7.36 9.38636 7.36H10.5C10.5875 7.36 10.6591 7.288 10.6591 7.2V5.44H12.5682V14.56Z" fill="#eeeeee"/>
</svg>
